#!OML:ASF F:\VICON\USERDATA\INSTALL\rory3\rory3.ASF
:FULLY-SPECIFIED
:DEGREES
123
root 0.5839861542953724 17.332331269882882 6.8062258831117886 5.477035825899663 -2.078606865154261 -1.0361356516549416
lfemur -25.978513210861927 9.151141907606815 -19.853875825052103
ltibia 40.668483027272885
lfoot -8.333440700515013 1.9514809055974807
ltoes -20.57017156660075
rfemur -14.657724361458945 -3.1477430253989747 18.548013596826873
rtibia 24.030600434585775
rfoot -17.22592127747354 1.5727892237110122
rtoes 8.509259563570515
lowerback 3.981381748475902 0.25913188219334077 -1.0890290296300056
upperback 4.146920470302428 0.326722396571108 0.9283777490430377
thorax 3.268007378126167 0.14151847602812923 1.093562129202324
lowerneck -12.035349495272438 -0.35777924874854744 -2.103818500424881
upperneck 26.31646197339994 -0.6286330846712911 1.3692957952142415
head 10.333007788705178 -0.3045669055898455 0.8825962654748828
lclavicle 1.0938825550992687e-15 -2.2152702217456937e-15
lhumerus -23.96062981531165 -3.3271781271849092 86.37911906266282
lradius 22.726205958694973
lwrist 14.664014607207385
lhand -23.875401765619035 -6.736210734399563
lfingers 7.12502
lthumb 2.0753173700299743 23.21642049961095
rclavicle 1.0935683478879453e-15 -2.2160761717085514e-15
rhumerus -27.953676358068 -10.995259562779424 -77.4029303121131
rradius 27.496777572912762
rwrist 34.05568078674437
rhand -18.62107752057541 -26.41718650158084
rfingers 7.12502
rthumb 7.861363231497034 -56.09958764148147
124
root 0.5776965423240508 17.32464029161956 6.6841316004106845 5.3699679849651245 -2.0686547297026108 -1.0147658019344599
lfemur -26.086309928851165 9.20101054819626 -19.858655224986126
ltibia 40.74012271520183
lfoot -8.387674681007312 1.8802309346034756
ltoes -20.465528837673403
rfemur -14.67772295274975 -3.173677440211555 18.524208006707376
rtibia 24.184125988966493
rfoot -17.235841943413767 1.5750722678574642
rtoes 8.392080139916425
lowerback 4.013373101686993 0.2249896681663774 -1.1501233444080656
upperback 4.133310469710077 0.27483597986020114 0.925619055095401
thorax 3.240531972569552 0.11652419778659018 1.1109760195597613
lowerneck -12.06627535590407 -0.339936115799008 -2.095291134175521
upperneck 26.312563188317423 -0.6107251817310919 1.362890383680087
head 10.343669202185348 -0.30026421923491287 0.8891341597122923
lclavicle 1.0941337362615992e-15 -2.21496110507993e-15
lhumerus -24.242616213710612 -3.7039324165192538 86.05395589819676
lradius 23.152633550817647
lwrist 15.114964606770226
lhand -23.97716234921299 -6.87229650969244
lfingers 7.12502
lthumb 2.037074480257121 23.08282852626799
rclavicle 1.093553361066946e-15 -2.21609514420388e-15
rhumerus -28.22299043356849 -11.023388037502441 -77.34101275779828
rradius 27.553060283517567
rwrist 34.02070107365039
rhand -18.540826911795346 -26.391758023616454
rfingers 7.12502
rthumb 7.937030766900386 -56.07307201950309
125
root 0.5721767825966451 17.322019959580448 6.5538352060860126 5.240899166084599 -2.058403001706725 -1.0340935808233347
lfemur -26.142115235669856 9.249690992303858 -19.82137407648855
ltibia 40.774630579813554
lfoot -8.427992601205705 1.8358293120230655
ltoes -20.363678540312836
rfemur -14.659658230749564 -3.204075333506066 18.540242237215644
rtibia 24.355845293737143
rfoot -17.24906225473571 1.5748445060773428
rtoes 8.269443057335076
lowerback 4.040437949341193 0.19454452872976868 -1.1701925204157684
upperback 4.139112818785483 0.23617109984042242 0.9374433312435804
thorax 3.212023993779193 0.09682755716928487 1.1258817876172995
lowerneck -12.11255138299644 -0.32616072311400623 -2.088663643307599
upperneck 26.317964468501646 -0.5969921196138079 1.3593003621720154
head 10.36523029123364 -0.2975387360933218 0.8945607974892531
lclavicle 1.0937899169988639e-15 -2.2153873193784245e-15
lhumerus -24.656363310670038 -4.035176456624151 85.60511176272531
lradius 23.535216941790125
lwrist 15.549346105580465
lhand -24.077802287849863 -7.011093823128397
lfingers 7.12502
lthumb 1.993343934362954 22.94960340037753
rclavicle 1.0934536278132953e-15 -2.2162185861880614e-15
rhumerus -28.515497301337874 -10.843763999513147 -77.22800070448191
rradius 27.67028347594806
rwrist 33.95143602795259
rhand -18.454815991685525 -26.363400812870992
rfingers 7.12502
rthumb 8.01199887212255 -56.05571920782486
126
root 0.5683766276151401 17.317456434792238 6.446168109513347 5.159100654916816 -2.0552897942632664 -1.035881658766183
lfemur -26.168921737496554 9.280228570142992 -19.802335331413673
ltibia 40.70859923500024
lfoot -8.402183850605697 1.8011621622550456
ltoes -20.237745179768744
rfemur -14.710476130062236 -3.2358251022419187 18.541629188548363
rtibia 24.590434250510633
rfoot -17.29580189832018 1.5974039895812049
rtoes 8.163815353133476
lowerback 4.040288107397964 0.16906039595245986 -1.2016981647155367
upperback 4.149654693488409 0.20229306327163113 0.94832410994263
thorax 3.18502640280766 0.08104421947814963 1.1433608138559985
lowerneck -12.164008869920963 -0.3140455465832507 -2.0825122947964467
upperneck 26.35409030891604 -0.589415416832801 1.3601335972230333
head 10.415761446973972 -0.29633075571984147 0.8997033182997622
lclavicle 1.0939191536785499e-15 -2.215216597503843e-15
lhumerus -25.15649074499998 -4.260386410493665 85.05916839865634
lradius 23.855315047739094
lwrist 15.856197769359262
lhand -24.165487730174966 -7.142440188896943
lfingers 7.12502
lthumb 1.9333908158702833 22.788784742248218
rclavicle 1.093427338053566e-15 -2.2162503205216232e-15
rhumerus -28.81667882529954 -10.578685412524454 -77.10529818538149
rradius 27.825531270176004
rwrist 33.88505201767594
rhand -18.38185207712983 -26.344800055927756
rfingers 7.12502
rthumb 8.0697297374295 -56.055975117492494
